<svg id="fi_19007863" enable-background="new 0 0 512 512" viewBox="0 0 512 512" xmlns="http://www.w3.org/2000/svg"><g><g><g><g><path d="m27.516 302.626v183.46c0 5.592 4.533 10.124 10.124 10.124h129.519v-193.584z" fill="#ffe177"></path><path d="m27.516 302.626v183.46c0 5.592 4.533 10.124 10.124 10.124h129.519v-193.584z" fill="#fff0ad"></path><path d="m136.012 455.17c0 5.523-4.477 10-10 10h-98.496v31.04h139.643v-193.584h-31.147z" fill="#ffe177"></path><g><path d="m344.841 302.626v193.584h129.519c5.592 0 10.124-4.533 10.124-10.124v-183.46z" fill="#ffe177"></path></g><g><path d="m344.841 302.626v193.584h129.519c5.592 0 10.124-4.533 10.124-10.124v-183.46z" fill="#ffe177"></path></g><path d="m453.338 455.17c0 5.523-4.477 10-10 10h-98.497v31.04h129.519c5.591 0 10.124-4.533 10.124-10.124v-183.46h-31.147v152.544z" fill="#ffd15b"></path></g><g><path d="m344.841 303.638h154.59c3.755 0 6.203-3.945 4.536-7.31l-16.693-33.687c-1.708-3.448-5.224-5.629-9.072-5.629h-133.361z" fill="#62dbfb"></path><path d="m344.841 303.638h154.59c3.755 0 6.203-3.945 4.536-7.31l-16.693-33.687c-1.708-3.448-5.224-5.629-9.072-5.629h-133.361z" fill="#62dbfb"></path><path d="m503.967 296.329-16.693-33.687c-1.708-3.448-5.224-5.629-9.072-5.629h-25.332l9.256 18.678c1.667 3.365-.781 7.31-4.536 7.31h-112.749v20.638h154.59c3.756-.001 6.204-3.946 4.536-7.31z" fill="#01d0fb"></path><path d="m167.159 257.012h-133.361c-3.848 0-7.363 2.181-9.072 5.629l-16.693 33.688c-1.667 3.365.781 7.31 4.536 7.31h154.59z" fill="#62dbfb"></path><path d="m167.159 257.012h-133.361c-3.848 0-7.363 2.181-9.072 5.629l-16.693 33.688c-1.667 3.365.781 7.31 4.536 7.31h154.59z" fill="#62dbfb"></path><path d="m136 257.012v15.988c0 5.523-4.477 10-10 10h-111.362l-6.605 13.329c-1.667 3.365.781 7.31 4.536 7.31h154.59v-46.626h-31.159z" fill="#01d0fb"></path></g><path d="m256 139.04-89.853 56.949v300.221h179.706v-300.221z" fill="#ffd15b"></path><path d="m256 139.04-89.853 56.949v300.221h179.706v-300.221z" fill="#ffd15b"></path><path d="m314.707 176.249v278.921c0 5.523-4.477 10-10 10h-138.56v31.04h179.707v-300.221z" fill="#ffc344"></path><path d="m328.017 61.613h-72.017v-40.823c0-2.761 2.239-5 5-5h67.017c2.761 0 5 2.239 5 5v35.823c0 2.761-2.238 5-5 5z" fill="#fd4755"></path><path d="m328.017 15.79h-20v19.033c0 2.761-2.239 5-5 5h-47.017v21.79h72.017c2.761 0 5-2.239 5-5v-35.823c0-2.762-2.238-5-5-5z" fill="#fb2b3a"></path><path d="m220.565 496.21v-69.822c0-19.57 15.865-35.435 35.435-35.435 19.57 0 35.435 15.865 35.435 35.435v69.822z" fill="#dff6fd"></path><path d="m220.565 496.21v-69.822c0-19.57 15.865-35.435 35.435-35.435 19.57 0 35.435 15.865 35.435 35.435v69.822z" fill="#dff6fd"></path><path d="m220.565 465.17h70.87v31.04h-70.87z" fill="#c8effe"></path><g fill="#fff"><path d="m234.251 272.86h-25.817c-2.796 0-5.062-2.266-5.062-5.062v-25.817c0-2.796 2.266-5.062 5.062-5.062h25.817c2.796 0 5.062 2.266 5.062 5.062v25.817c0 2.796-2.266 5.062-5.062 5.062z"></path><path d="m303.566 272.86h-25.817c-2.796 0-5.062-2.266-5.062-5.062v-25.817c0-2.796 2.266-5.062 5.062-5.062h25.817c2.796 0 5.062 2.266 5.062 5.062v25.817c0 2.796-2.266 5.062-5.062 5.062z"></path></g><g fill="#fff"><path d="m234.251 343.459h-25.817c-2.796 0-5.062-2.266-5.062-5.062v-25.817c0-2.796 2.266-5.062 5.062-5.062h25.817c2.796 0 5.062 2.266 5.062 5.062v25.817c0 2.796-2.266 5.062-5.062 5.062z"></path><path d="m109.74 385.085h-25.817c-2.796 0-5.062-2.266-5.062-5.062v-25.817c0-2.796 2.266-5.062 5.062-5.062h25.817c2.796 0 5.062 2.266 5.062 5.062v25.817c0 2.796-2.267 5.062-5.062 5.062z"></path><path d="m109.74 455.684h-25.817c-2.796 0-5.062-2.266-5.062-5.062v-25.817c0-2.796 2.266-5.062 5.062-5.062h25.817c2.796 0 5.062 2.266 5.062 5.062v25.817c0 2.796-2.267 5.062-5.062 5.062z"></path><path d="m428.077 385.085h-25.817c-2.796 0-5.062-2.266-5.062-5.062v-25.817c0-2.796 2.266-5.062 5.062-5.062h25.817c2.796 0 5.062 2.266 5.062 5.062v25.817c.001 2.796-2.266 5.062-5.062 5.062z"></path><path d="m428.077 455.684h-25.817c-2.796 0-5.062-2.266-5.062-5.062v-25.817c0-2.796 2.266-5.062 5.062-5.062h25.817c2.796 0 5.062 2.266 5.062 5.062v25.817c.001 2.796-2.266 5.062-5.062 5.062z"></path><path d="m303.566 343.459h-25.817c-2.796 0-5.062-2.266-5.062-5.062v-25.817c0-2.796 2.266-5.062 5.062-5.062h25.817c2.796 0 5.062 2.266 5.062 5.062v25.817c0 2.796-2.266 5.062-5.062 5.062z"></path></g><g><path d="m364.087 208.744-108.087-68.505-108.087 68.505c-4.723 2.993-10.978 1.591-13.971-3.132l-6.339-10.002c-2.993-4.723-1.591-10.978 3.132-13.971l116.676-73.948c5.244-3.324 11.935-3.324 17.178 0l116.676 73.948c4.723 2.993 6.125 9.248 3.132 13.971l-6.339 10.002c-2.993 4.723-9.248 6.125-13.971 3.132z" fill="#62dbfb"></path></g><path d="m314.707 177.447 49.38 31.297c4.723 2.993 10.978 1.591 13.971-3.132l6.339-10.002c2.993-4.723 1.591-10.978-3.132-13.971l-66.559-42.184v37.992z" fill="#01d0fb"></path></g></g><g><path d="m83.922 392.585h25.817c6.927 0 12.562-5.635 12.562-12.562v-25.817c0-6.927-5.635-12.562-12.562-12.562h-25.817c-6.927 0-12.562 5.636-12.562 12.562v25.817c0 6.927 5.636 12.562 12.562 12.562zm2.438-35.941h20.941v20.941h-20.941z"></path><path d="m71.36 450.622c0 6.927 5.635 12.562 12.562 12.562h25.817c6.927 0 12.562-5.636 12.562-12.562v-25.817c0-6.927-5.635-12.562-12.562-12.562h-25.817c-6.927 0-12.562 5.635-12.562 12.562zm15-23.379h20.941v20.941h-20.941z"></path><path d="m402.26 392.585h25.817c6.927 0 12.562-5.635 12.562-12.562v-25.817c0-6.927-5.635-12.562-12.562-12.562h-25.817c-6.927 0-12.562 5.636-12.562 12.562v25.817c0 6.927 5.635 12.562 12.562 12.562zm2.438-35.941h20.941v20.941h-20.941z"></path><path d="m402.26 463.185h25.817c6.927 0 12.562-5.636 12.562-12.562v-25.817c0-6.927-5.635-12.562-12.562-12.562h-25.817c-6.927 0-12.562 5.635-12.562 12.562v25.817c0 6.926 5.635 12.562 12.562 12.562zm2.438-35.942h20.941v20.941h-20.941z"></path><path d="m234.251 229.419h-25.817c-6.927 0-12.562 5.636-12.562 12.562v25.816c0 6.927 5.635 12.562 12.562 12.562h25.817c6.927 0 12.562-5.636 12.562-12.562v-25.816c0-6.926-5.635-12.562-12.562-12.562zm-2.438 35.941h-20.941v-20.941h20.941z"></path><path d="m277.749 280.36h25.817c6.927 0 12.562-5.636 12.562-12.562v-25.816c0-6.927-5.635-12.562-12.562-12.562h-25.817c-6.927 0-12.562 5.636-12.562 12.562v25.816c0 6.927 5.635 12.562 12.562 12.562zm2.438-35.941h20.941v20.941h-20.941z"></path><path d="m234.251 300.019h-25.817c-6.927 0-12.562 5.635-12.562 12.562v25.817c0 6.927 5.635 12.562 12.562 12.562h25.817c6.927 0 12.562-5.635 12.562-12.562v-25.818c0-6.927-5.635-12.561-12.562-12.561zm-2.438 35.94h-20.941v-20.94h20.941z"></path><path d="m277.749 350.959h25.817c6.927 0 12.562-5.635 12.562-12.562v-25.817c0-6.927-5.635-12.562-12.562-12.562h-25.817c-6.927 0-12.562 5.635-12.562 12.562v25.817c0 6.927 5.635 12.562 12.562 12.562zm2.438-35.94h20.941v20.94h-20.941z"></path><path d="m510.683 292.998-16.693-33.687c-2.995-6.044-9.046-9.799-15.792-9.799h-46.202c-4.142 0-7.5 3.357-7.5 7.5s3.358 7.5 7.5 7.5h46.202c1.005 0 1.906.559 2.352 1.459l14.949 30.167h-142.145v-31.626h43.646c4.142 0 7.5-3.357 7.5-7.5s-3.358-7.5-7.5-7.5h-43.646v-38.692l6.719 4.259c2.92 1.851 6.181 2.732 9.405 2.732 5.842 0 11.564-2.896 14.915-8.186l6.339-10.002c5.202-8.208 2.757-19.118-5.451-24.32l-116.675-73.946c-1.615-1.024-3.334-1.819-5.106-2.411v-29.833h64.517c6.893 0 12.5-5.607 12.5-12.5v-35.823c0-6.893-5.607-12.5-12.5-12.5h-67.017c-6.893 0-12.5 5.607-12.5 12.5v78.156c-1.772.592-3.49 1.387-5.104 2.411l-43.851 27.792c-3.499 2.218-4.537 6.852-2.32 10.35 2.217 3.499 6.85 4.537 10.35 2.32l43.853-27.793c2.778-1.762 6.369-1.763 9.147.001l116.676 73.947c.799.506 1.067 1.246 1.156 1.643.089.396.162 1.18-.344 1.979l-6.339 10.002c-.774 1.224-2.4 1.588-3.621.812l-108.087-68.506c-2.451-1.553-5.579-1.553-8.03 0l-108.086 68.506c-1.222.774-2.848.411-3.622-.812l-6.339-10.002c-.506-.799-.433-1.583-.344-1.979s.357-1.137 1.156-1.643l43.237-27.403c3.499-2.218 4.537-6.852 2.32-10.35-2.217-3.5-6.851-4.538-10.35-2.32l-43.237 27.403c-8.208 5.202-10.653 16.112-5.451 24.32l6.339 10.002c5.2 8.208 16.111 10.652 24.321 5.453l6.718-4.258v38.692h-124.845c-6.746 0-12.797 3.755-15.792 9.799l-16.694 33.686c-1.943 3.922-1.726 8.483.582 12.202s6.298 5.938 10.674 5.938h7.443v73.862c0 4.143 3.358 7.5 7.5 7.5s7.5-3.357 7.5-7.5v-73.861h123.631v177.571h-121.007c-1.447 0-2.625-1.177-2.625-2.624v-66.086c0-4.143-3.358-7.5-7.5-7.5s-7.5 3.357-7.5 7.5v66.086c0 9.718 7.906 17.624 17.625 17.624h436.72c9.718 0 17.625-7.906 17.625-17.624v-174.947h7.443c4.376 0 8.366-2.22 10.674-5.938s2.524-8.281.581-12.203zm-247.183-269.708h62.017v30.823h-62.017zm-104.854 272.849h-142.144l14.949-30.167c.446-.9 1.347-1.459 2.352-1.459h124.844v31.626zm125.289 192.571h-55.87v-62.321c0-15.403 12.532-27.936 27.935-27.936s27.935 12.532 27.935 27.936zm54.419 0h-39.418v-62.321c0-23.675-19.261-42.936-42.935-42.936s-42.935 19.261-42.935 42.936v62.321h-39.418v-287.396l82.352-52.196 82.354 52.195zm138.63-2.624c0 1.447-1.177 2.624-2.625 2.624h-121.005v-177.571h123.631v174.947z"></path></g></g></svg>