<svg viewBox="0 0 512 512" xmlns="http://www.w3.org/2000/svg">
  <!-- Simplified monochrome school building silhouette for tray icon -->
  <g fill="#000000">
    <!-- Main building body -->
    <path d="m256 139.04-89.853 56.949v300.221h179.706v-300.221z"/>
    <!-- Left wing -->
    <path d="m27.516 302.626v183.46c0 5.592 4.533 10.124 10.124 10.124h129.519v-193.584z"/>
    <!-- Right wing -->
    <path d="m344.841 302.626v193.584h129.519c5.592 0 10.124-4.533 10.124-10.124v-183.46z"/>
    <!-- Roof -->
    <path d="m364.087 208.744-108.087-68.505-108.087 68.505c-4.723 2.993-10.978 1.591-13.971-3.132l-6.339-10.002c-2.993-4.723-1.591-10.978 3.132-13.971l116.676-73.948c5.244-3.324 11.935-3.324 17.178 0l116.676 73.948c4.723 2.993 6.125 9.248 3.132 13.971l-6.339 10.002c-2.993 4.723-9.248 6.125-13.971 3.132z"/>
    <!-- Left awning -->
    <path d="m167.159 257.012h-133.361c-3.848 0-7.363 2.181-9.072 5.629l-16.693 33.688c-1.667 3.365.781 7.31 4.536 7.31h154.59z"/>
    <!-- Right awning -->
    <path d="m344.841 303.638h154.59c3.755 0 6.203-3.945 4.536-7.31l-16.693-33.687c-1.708-3.448-5.224-5.629-9.072-5.629h-133.361z"/>
    <!-- Flag pole -->
    <path d="m328.017 61.613h-72.017v-40.823c0-2.761 2.239-5 5-5h67.017c2.761 0 5 2.239 5 5v35.823c0 2.761-2.238 5-5 5z"/>
    <!-- Door -->
    <path d="m220.565 496.21v-69.822c0-19.57 15.865-35.435 35.435-35.435 19.57 0 35.435 15.865 35.435 35.435v69.822z" fill="#000" fill-opacity="0.3"/>
  </g>
  <!-- Windows as cutouts (transparent) -->
  <g fill="#fff">
    <rect x="203.372" y="236.919" width="35.941" height="35.941" rx="5"/>
    <rect x="272.687" y="236.919" width="35.941" height="35.941" rx="5"/>
    <rect x="203.372" y="307.519" width="35.941" height="35.941" rx="5"/>
    <rect x="272.687" y="307.519" width="35.941" height="35.941" rx="5"/>
    <rect x="78.861" y="349.144" width="35.941" height="35.941" rx="5"/>
    <rect x="78.861" y="419.743" width="35.941" height="35.941" rx="5"/>
    <rect x="397.198" y="349.144" width="35.941" height="35.941" rx="5"/>
    <rect x="397.198" y="419.743" width="35.941" height="35.941" rx="5"/>
  </g>
</svg>
